<svg width="18" height="15" fill="none" xmlns="http://www.w3.org/2000/svg"><g clip-path="url(#a)"><path d="M11.6.200056c1.8-.5 3.2.3 3.8 1.200004.7-.2 1.4-.500004 2.1-.700004 0 .900004-.6 1.500004-.9 1.800004.7.1 1.4-.6 1.4-.6-.2 1-1.1 1.8-1.7 2C16.1 10.7001 13 15.1001 5.7 15.0001h-.5c-.4 0-4.4-.5-5.2-1.9 2.4.2 4.1-.4 5-1.2-1-.3-2.9-.4-3.2-2.90004.4.1.6.2 1.3.1-1.3-.8-2.7-1.6-2.6-3.8.3.3 1.1.5 1.4.5-.8-.2-2.1-3.3-1-4.900004C2.8 2.80006 4.9 4.50006 8.5 4.70006c.2-2.4 1.2-3.900004 3.1-4.500004Z" fill="#83B3D3"/></g><defs><clipPath id="a"><path fill="#fff" d="M0 0h18v15H0z"/></clipPath></defs></svg>